<?xml version="1.0" encoding="UTF-8"?>
<svg id="Layer_2" data-name="Layer 2" xmlns="http://www.w3.org/2000/svg" xmlns:xlink="http://www.w3.org/1999/xlink" viewBox="0 0 647.57 268.66">
  <defs>
    <style>
      .cls-1 {
        fill: red;
      }

      .cls-2 {
        fill: url(#_Безымянный_градиент_11);
      }
    </style>
    <linearGradient id="_Безымянный_градиент_11" data-name="Безымянный градиент 11" x1="296.63" y1="187.22" x2="646.5" y2="187.22" gradientUnits="userSpaceOnUse">
      <stop offset="0" stop-color="red" stop-opacity="0"/>
      <stop offset="1" stop-color="red"/>
    </linearGradient>
  </defs>
  <g id="_Слой_1" data-name="Слой 1">
    <g>
      <path class="cls-1" d="M350.94,268.66h-54.31c-6.29-61.04-57.96-108.62-120.63-108.62s-114.28,47.58-120.56,108.62H1.07c3.02-43.44,21.87-82.41,50.91-111.45,31.74-31.81,75.56-51.42,124.02-51.42s92.28,19.61,124.08,51.42c28.98,29.04,47.84,68.01,50.85,111.45Z"/>
      <path class="cls-2" d="M646.5,268.66h-54.31c-6.29-61.04-57.96-108.62-120.63-108.62s-114.28,47.58-120.56,108.62h-54.37c3.02-43.44,21.87-82.41,50.91-111.45,31.74-31.81,75.56-51.42,124.02-51.42s92.28,19.61,124.08,51.42c28.98,29.04,47.84,68.01,50.85,111.45Z"/>
      <rect class="cls-1" width="647.57" height="54.25"/>
    </g>
  </g>
</svg>